# xmcd
#
# Track frame offsets: 
#        150
#        14337
#        32531
#        47317
#        67779
#        85273
#        99059
#        116023
#        133373
#        148868
#        169702
#
# Disc length: 2454 seconds
#
# Revision: 0
# Processed by: cddbd v1.5.2PL0 Copyright (c) Steve Scherf et al.
# Submitted via: ExactAudioCopy v0.95a5
#
DISCID=8609940b
DTITLE=Scotty Meyer Band - Pay The Price
DYEAR=2004
DGENRE=Blues-Rock
TTITLE0=Pay The Price
TTITLE1=Meant For You
TTITLE2=Prison City Blooze
TTITLE3=Perfect Man
TTITLE4=Treat Me Right
TTITLE5=Beggin' For More
TTITLE6=Hard To Get
TTITLE7=Love Gone Wrong
TTITLE8=Bad Deal
TTITLE9=Let It Go
TTITLE10=A Priece Of My Mind
EXTD=
EXTT0=
EXTT1=
EXTT2=
EXTT3=
EXTT4=
EXTT5=
EXTT6=
EXTT7=
EXTT8=
EXTT9=
EXTT10=
PLAYORDER=
